<?xml version="1.0" encoding="UTF-8"?>
<svg id="Livello_2" data-name="Livello 2" xmlns="http://www.w3.org/2000/svg" viewBox="0 0 252.1 251.05">
  <defs>
    <style>
      .cls-1 {
        fill: #fff;
      }

      .cls-2 {
        fill: #3092b0;
      }
    </style>
  </defs>
  <g id="Livello_1-2" data-name="Livello 1">
    <g>
      <path class="cls-1" d="M193.15,120.73h-44.48c-7.99,0-14.47-6.48-14.47-14.47V17.29c0-7.99,6.48-14.47,14.47-14.47h44.48c32.56,0,58.95,26.39,58.95,58.95h0c0,32.56-26.39,58.95-58.95,58.95Z"/>
      <path class="cls-1" d="M58.95,117.91H14.47c-7.99,0-14.47-6.48-14.47-14.47V14.47C0,6.48,6.48,0,14.47,0h44.48c32.56,0,58.95,26.39,58.95,58.95h0c0,32.56-26.39,58.95-58.95,58.95Z"/>
      <path class="cls-1" d="M193.15,251.05h-44.48c-7.99,0-14.47-6.48-14.47-14.47v-88.97c0-7.99,6.48-14.47,14.47-14.47h44.48c32.56,0,58.95,26.39,58.95,58.95h0c0,32.56-26.39,58.95-58.95,58.95Z"/>
      <path class="cls-2" d="M117.91,233.76h0c0-25.77-10.24-50.48-28.46-68.7l-6.28-6.28c-18.22-18.22-42.93-28.46-68.7-28.46h0c-7.99,0-14.47,6.48-14.47,14.47h0c0,25.77,10.24,50.48,28.46,68.7l6.28,6.28c18.22,18.22,42.93,28.46,68.7,28.46h0c7.99,0,14.47-6.48,14.47-14.47Z"/>
    </g>
  </g>
</svg>