<?xml version="1.0" encoding="UTF-8"?>
<svg id="Livello_2" data-name="Livello 2" xmlns="http://www.w3.org/2000/svg" viewBox="0 0 525.18 525.18">
  <defs>
    <style>
      .cls-1 {
        fill: #fff;
      }

      .cls-2 {
        fill: #ff5f08;
      }
    </style>
  </defs>
  <g id="Livello_2-2" data-name="Livello 2">
    <rect class="cls-1" width="525.18" height="525.18" rx="75.76" ry="75.76"/>
    <path class="cls-2" d="M314.19,323.16c-17.73.81-15.93-8.46-5.56-22.72,24.3-32.55,70.35-78,71.93-110.15,2.79-42.04-39.46-55.72-82.89-55.32-30.09,1.28-58.4,7.29-84.73,17.3l1.86-.62c-62.51,20.34-113.92,60.33-148.21,112.57l-.65,1.06c-30.89,45.64-20.72,89.26,44.43,90.67,43.03-1.8,82.89-13.88,117.64-33.85l-1.25.66c.18,0-93.66,26.76-128.13,7.06l-.15-.04c-4.76-2.36-8.06-7.04-8.41-12.53v-.04c-.22-16.3,26.88-33.19,42.04-38.61v-28.23c10.67,4.26,23.03,6.73,35.99,6.73,24.42,0,46.79-8.81,64.1-23.42l-.15.12c.56,1.92.88,4.13.88,6.4,0,.65-.03,1.28-.07,1.92v-.09h6.84c.06-.57.09-1.25.09-1.93,0-4.11-1.21-7.94-3.3-11.14l.04.07c-3.64-5.61-9.78-9.33-16.81-9.58h-.03c4.01,2,7.29,4.92,9.68,8.49l.06.09c-15.74,13.28-36.24,21.34-58.62,21.34-9.74,0-19.13-1.53-27.92-4.35l.65.18,22.28-22.1-6.19-16.09c40.76-15.63,89.11-28.96,139.02-37.69l4.83-.69-13.73-11.49,7.16-4.42c37.02,10.46,61.23,18.14,59.9,37.77-.87,4.26-2.15,8.02-3.85,11.55l.13-.29c-17.29,26.97-35.68,50.43-56.01,72.03l.24-.25c-7.91,8.64-15.44,18.02-22.34,27.88l-.59.88c-5.54,7.25-9.21,16.19-10.12,25.95v.21c.78,64.53,190.29-30.19,226.93-55.3-51.52,25.35-111.4,43.07-174.59,49.85l-2.36.21h-.04Z"/>
  </g>
</svg>