<?xml version="1.0" encoding="UTF-8"?>
<svg id="Livello_2" data-name="Livello 2" xmlns="http://www.w3.org/2000/svg" width="14" height="14" viewBox="0 0 20 20">
  <defs>
    <style>
      .cls-1 {
        fill: #000;
      }

      .cls-2 {
        fill: #000;
      }

      .cls-2 {
        opacity: 0;
      }
    </style>
  </defs>
  <g id="Livello_1-2" data-name="Livello 1">
    <g>
      <rect class="cls-2" width="20" height="20"/>
      <g>
        <g>
          <path class="cls-1" d="M4.18.43c-.17-.15-.43.02-.37.24l4.69,15.69c.06.2.34.22.43.03l1.01-2.23c.04-.09.14-.15.24-.13.46.06,1.77.41,3.19,2.47,0,0,0,.01.01.02.05.09.49.85,2.13,1.72-.13-1.85-.64-2.56-.71-2.64,0,0-.01-.01-.01-.02-1.31-2.13-1.1-3.47-.97-3.92.03-.1.12-.16.22-.16l2.45-.02c.21,0,.31-.26.15-.4L4.18.43ZM14.04,10.79c-.41,0-.76.27-.88.66-.17.56-.4,2.13,1.04,4.48.02.03.04.06.06.09,0,0,.17.23.32.78-.44-.36-.58-.61-.58-.61-.02-.03-.03-.06-.05-.09-1.56-2.27-3.09-2.69-3.68-2.76-.22-.03-.44.02-.62.14-.14.09-.26.23-.34.4l-.49,1.09L4.94,2l10.29,8.79h-1.19Z"/>
          <g>
            <path class="cls-1" d="M10.74,10.9c.04.41-.12.8-.12.8,0,0,.42,0,.78.21-.04-.41.12-.8.12-.8,0,0-.42,0-.78-.21Z"/>
            <path class="cls-1" d="M9.69,9.29c.24,1.13-.13,3.1-.13,3.1,0,0,1.96.46,2.89,1.14-.24-1.13.13-3.1.13-3.1,0,0-1.96-.46-2.89-1.14ZM10.21,11.97l.14-1.67,1.58.55-.14,1.67-1.58-.55Z"/>
          </g>
        </g>
        <path fill="#fff" d="M8.82,14.96l.49-1.09c.08-.17.19-.3.34-.4.18-.12.4-.17.62-.14.58.08,2.11.5,3.68,2.76.02.03.04.06.05.09,0,0,.14.25.58.61-.15-.55-.32-.78-.32-.78-.02-.03-.04-.06-.06-.09-1.44-2.35-1.21-3.91-1.04-4.48.12-.39.47-.66.88-.66h1.19S4.94,2,4.94,2l3.87,12.96ZM9.69,9.29c.93.68,2.89,1.14,2.89,1.14,0,0-.37,1.97-.13,3.1-.93-.68-2.89-1.14-2.89-1.14,0,0,.37-1.97.13-3.1Z"/>
        <path fill="#fff" d="M11.93,10.85l-1.58-.55-.14,1.67,1.58.55.14-1.67ZM11.4,11.91c-.36-.21-.78-.21-.78-.21,0,0,.17-.39.12-.8.36.21.78.21.78.21,0,0-.17.39-.12.8Z"/>
      </g>
    </g>
  </g>
</svg>