<?xml version="1.0" encoding="UTF-8"?>
<svg id="Livello_2" data-name="Livello 2" xmlns="http://www.w3.org/2000/svg" viewBox="0 0 1078.99 508.94">
  <defs>
    <style>
      .cls-1 {
        fill: #fff;
      }
    </style>
  </defs>
  <g id="Livello_1-2" data-name="Livello 1">
    <g>
      <path class="cls-1" d="M345.31,366.84c6.21-2.72,5.37-8.62,11.07-11.67-.85,11.98-1.56,23.38.15,35.29.59,4.11.82,7.75.81,12.16-31.75,26.31-69.9,41.78-111.2,44.57-5.74.39-11.09,1.33-17.05,1.33l-215.79-.03c15.05-10.49,29.11-17.82,43.33-26.68,5.23-3.26,9.48-7.18,11.51-13.36,1.37-4.19,3.04-9.08,3.03-14.1l-.26-243.35c-.01-12.02-7.43-21.7-15.99-27.96-17.88-13.07-32.97-28.46-43.41-47.8C5.25,63.64.04,51.78,0,37.9c21.28,14.51,44.11,20.33,68.8,21.95l18.86,1.23,141.05.64,13.2,1.16c24.01,2.11,46.77,6.42,69.03,15.82,48.76,20.6,86.08,60.83,102.48,111.15-13.36,7.55-26.73,13.46-37.57,23.31-12.09,10.99-22.8,22.36-35.24,34.94l51.27-8.75c-15.27,14.91-27.05,30.79-34.83,49.7-5.28,12.82-7.06,25.51-8.27,39.05l-3.48,38.75ZM303.19,203.53c-9.87-22.9-28.53-38.93-52.84-45.01-4.69-.79-10.17-2.74-15.05-2.75l-56.74-.16-.02,199.68c33.96-.84,63.19,5.12,92.86-11.64,12.41-7.88,22.19-17.89,29-30.91,16.05-30.69,16.34-77.76,2.79-109.21Z"/>
      <path class="cls-1" d="M884.89,354.89c37.07-1.22,67.29-24.21,77.3-60.37,7.01-25.31,6.84-51.94.29-77.34-9.61-37.23-40.28-61.77-77.69-62.07l-50.39-.4-2.09,5.84-13.1-1.26c-19.82-1.9-49.46,3.12-67.9,12.92.87-5.9,6.2-5.85,7.89-11.76-11.3,4.23-20.95,9.45-32.67,15.78l-.83-24.27c-.41-12.08-5.57-21.96-15.29-28.6-24.3-16.6-45.4-42.82-53.69-71.39-1.3-4.49-2.19-8.69-.77-13.51,20.86,14.06,42.87,19.9,66.86,21.36l19.86,1.21,141.03.68,13.23,1.13c24.69,2.11,48.32,6.82,70.99,16.74,50.6,22.14,88.61,64.67,103.36,118.06,5.57,20.15,8.34,40.29,7.6,61.22-1.79,50.28-20.37,101.61-58.28,136.03-19.06,17.31-40.67,30.83-64.81,40.21-22.07,8.58-44.94,11.72-68.39,12.93-5.06.26-9.73.91-14.95-.06,21.06-31.27,14.56-66.82-10.54-92.35l22.98-.76Z"/>
      <path class="cls-1" d="M554.52,417.04c23.42-11.1,40.46-31.42,54.07-51.81l44.71,37.18c-11.49,22.95-25.7,43.11-43.79,60.21-29.06,26.75-65.77,39.56-105.42,36.94-23.47-1.55-45.92-10.02-65.02-23.78-10.22-7.36-17.86-16.76-25.64-26.41-1.04-1.29-3.26-2.83-4.52-2.82-7.75.09-2.89,16.88-2.74,21.55-22.93-21.78-33.66-51.17-35.67-82.06-1.5-23.01,2.59-45.3,9.88-67.24,1.06-3.2,1.17-8.94-3-8.99-5.34-.06-7.56,5.37-12.98,8.31,2.49-29.39,24.52-59.98,47.52-77.2,5.41,1.18-1.54,20.75-2.18,30.54l-1.18,17.96c-.38,5.83-1.41,10.66-.48,17.2l25.12-27.33c8.82-9.6,20.18-15.74,32.35-22.28l-5.63,31.85c-.16.92,0,2.45.27,3.09s2.11-.31,2.75-.76l19.91-14.17c7.12-5.06,15.85-7.52,25.12-4.4-11.25,12.56-20.79,25.03-27.39,40-11.71,26.58-13.94,56.86,1.33,82.21,15.05,24.99,45.64,34.98,72.6,22.21Z"/>
      <path class="cls-1" d="M852.45,451.31c-16.32,15.26-36.71,20.76-59.96,19.42,10.48,10.07,24.91,12.85,38.73,13.4,3.17.13,6.64-1.55,9.83.17-14.63,15.91-42.45,25.06-62.78,24.62-37.92-.78-63.28-26.33-68.8-64.53-14.47,13.55-13.96,34.08-3.42,51-23.93-7.79-36.33-31.52-33.88-55.98,1.83-18.27,2.75-37.26-13.31-50.59l-52.33-43.45c-23.47-19.48-8.1-38.92-23.24-51.01l-12.1-9.67c-7.9-6.31-13.68-16.26-9.8-26.94,7.18,16.07,19.95,16.75,35.05,18.21,20.4,1.98,11.77,24.33,20.81,30.39,10.62,7.12,21.5-3.42,40.94,12.32l63.16,51.13c8.68,7.03,21.05,5.71,28.85.36,9.13-6.26,12.51-16.16,10.77-28.65,21.15,12.78,27.82,52.19,5.7,70.59,15.97,3.65,32.84-.14,45.08-9.92,11.49-9.18,14.73-23.76,8.37-36.76-4.01-8.2-10.81-13.17-19.24-18.73,18.39-1.21,36.2,5.58,49.72,17.18,27.1,23.27,28.16,62.85,1.88,87.43Z"/>
      <path class="cls-1" d="M565.85,304.96c-9.9,13.44-24.7,20.55-41.14,22.68,4.52-6.55,11.22-9.42,12.94-17.86l-17.11,1.87c6.74-8.91,11.89-16.4,11.35-27.01-.53-10.29-6.41-18.72-15.65-22.99-11.93-5.51-24.42-4.39-37.35,1.27,5.77-15.51,17.61-24.43,31.22-32.94l-22.38-6.63c12.56-9.9,34.58-11.32,43.15-14.44,4.77-1.73-39.37-6.8-66.01,17.66-7.72,7.09,12.67,3.63,17.79,8.24-22.18,7.2-40.46,18.13-58.49,33.29l2.99-18.48c1.72-10.63-2.76-19.56-12.64-23.45-10.42-4.1-20.33-2.13-30.61-.62-.52.08.03-1.84.55-2.25,16.17-12.64,31.73-18.52,49.78-29.88,15.37-9.66-7.24-28.53-16.28-35.61,12.28-1.51,23.78.96,36.54,2.74-6.1-11.45-8.8-23.67-4.91-35.73,7.27,12.01,15.97,20.54,27.13,27.17l30.09,17.87c8.83,5.24,14.83,12.35,22.31,20.26-3.26-15.26-15.24-24.42-26.72-33.08-6.26-9.12-3.83-53.14,5.53-60.41,1.19,17.06,8.35,31.19,19.53,43.79,22.36,25.19,42.21,35.74,62.33,63.14.55-3.07-1.05-6.05-2.79-8.83-17.47-27.94-41.2-40.56-51.69-55.32-5.21-7.33-3.75-29.52,2.5-37.31,2.47,24.6,19.85,43.47,37.44,59.41l14.6,13.23c15.66,14.19,31.69,34.04,30.05,56.24-.86,11.7,6.43-.17,11.43,19.74,6.39-2.64,10.34-7.45,15.64-12.98,2.73,17.72-9.26,48.23-26.42,55.82,2.36-11.24-1.75-20.47-11.6-24.67-8.48-3.61-16.64-3.38-27.11-3.67l4.66-11.31c1.88-4.57-.15-10.05-5.35-11.26-6.54-1.51-13.79-2.31-20.49-1.66-12.27,1.19-23.92,1.36-36.24,6.37,5.99,2.34,17.78,1.5,21.6,4.04,2.29,1.52-6.91,12.12-5.19,24.72.23,1.71,2.8,4.84,4.41,5.13s4.42-.95,7.28-2.01l-2.04,14.44c-.26,1.81.66,5.87,1.94,7.11,5.09,4.93,13.24.55,13.43,4.15ZM588.96,228.93c-4.19-10.97-12.01-20.56-23.83-23.79.39,10.51,11,27.58,23.83,23.79Z"/>
      <path class="cls-1" d="M502.8,61.39c-8.8,10.14-8.82,21-11.21,33.15-2.89,14.67-8.43,28.4-6.18,45.57-9.84-4.99-17.74-10.94-21.84-20.02l-16.16-35.74-9.56,28.74c-2.92,8.78-4.07,17.26-4.22,27.37-8.78-12.88-10.28-27.4-10.7-41.98-.71-24.59,7.89-47.81,24.77-65.47,14.73-15.41,32.22-25.71,53.26-30.07,21.35-4.43,42.82-3.82,63.92,1.66,27.79,7.21,50.24,25.6,61.17,52.29,16.13,39.41,4.56,79.06-19.93,113.59l-29.95-27.89c-5.48-5.1-9.78-10.84-14.18-16.98,11.52-19.83,12.33-51.77-4.63-68.08-15.99-15.38-40.32-12.53-54.56,3.87Z"/>
      <path class="cls-1" d="M685.55,322.44l-23.42-18.8c-2.91-2.34-6.79-3.62-10.91-5.97,8.33-11.63,16.95-21.07,26.53-30.68,26.8-26.89,61.23-50.25,100.67-54.24-4.39-3.23-9.23-2.17-14.41-1.42-35.61,5.21-66.66,22.8-93.39,48.72,9.58-28.59,29.4-52.24,53.61-68.99l-6.62,14.53c-.46,1,.99,3.8,2.03,4.12,1.21.38,4.32.27,5.36-.46,16.49-11.62,33.71-30.84,54.24-32.96-1.11,3.45-17.87,10.15-13.39,17.77,3.78,6.41,20.9-5.56,42.38-6.6,28.17-1.37,58.34,12.51,79.02,33.7-25.02-2.54-56.63,2.22-76.93,16.5-11.21-7.5-24.36-9.98-37.39-8.6-18.83,2-33.95,11.09-45.48,25.7-16.41,20.78-29.98,41.94-41.89,67.69Z"/>
      <path class="cls-1" d="M747.18,345.31c1.17,3.38.19,8.09-1.58,10.72-4.09,6.06-13.14,5.41-18.5.3l-.06-77.87c14.83-20.99,25.88-36.63,54.23-36.45,24.74.16,26.35,17.84,33.1,10.67,5.27-5.6,11.45-9.82,19.07-10.83v96.12c-25.15-8.72-36.1-4.19-59.71-4.39-3.27-2.63-5.82-4.61-8.93-6.47-9.92-5.96-18.71-11.58-29.92-17.31l12.29,35.51Z"/>
      <path class="cls-1" d="M806.31,388.1c-3.26,4.41-7.98,7.07-13.17,8.57.04-6.94,1.9-13.39,1.4-19.58l-1.37-17.03c4.39.89,7.51,3.01,10.63,5.95,6.01,5.65,7.94,14.77,2.51,22.09Z"/>
      <polygon class="cls-1" points="833.37 175.69 816.58 172.75 833.08 166.12 833.37 175.69"/>
    </g>
  </g>
</svg>