<?xml version="1.0" encoding="UTF-8"?>
<svg id="Livello_2" data-name="Livello 2" xmlns="http://www.w3.org/2000/svg" viewBox="0 0 20 20">
  <defs>
    <style>
      .cls-1, .cls-2 {
        fill: #fff;
      }

      .cls-2 {
        opacity: 0;
      }
    </style>
  </defs>
  <g id="Livello_1-2" data-name="Livello 1">
    <g>
      <rect class="cls-2" width="20" height="20"/>
      <g>
        <path class="cls-1" d="M9.98,10.71c.22-.43.64-.7.64-.7,0,0-.41-.28-.63-.71-.22.43-.64.7-.64.7,0,0,.41.28.63.71Z"/>
        <path class="cls-1" d="M8.88,11.09l1.07,1.72,1.11-1.72,1.73-1.09-1.7-1.09-1.07-1.72-1.11,1.72-1.73,1.09,1.7,1.09ZM9.99,8.55l1.44,1.46-1.46,1.44-1.44-1.46,1.46-1.44Z"/>
        <path class="cls-1" d="M3.37,12.75h0c.17-.17.17-.44,0-.61l-1.72-1.72h5.8s-.67-.43-.67-.43l.67-.42H1.65l1.72-1.72c.17-.17.17-.44,0-.61-.17-.17-.44-.17-.61,0L.02,9.99h0s0,.01,0,.01l2.75,2.75c.17.17.44.17.61,0Z"/>
        <path class="cls-1" d="M16.63,7.25h0c-.17.17-.17.44,0,.61l1.72,1.72h-5.8s.67.43.67.43l-.67.42h5.8l-1.72,1.72c-.17.17-.17.44,0,.61.17.17.44.17.61,0l2.75-2.75h0s0-.01,0-.01l-2.75-2.75c-.17-.17-.44-.17-.61,0Z"/>
        <path d="M11.44,10.01l-1.44-1.46-1.46,1.44,1.44,1.46,1.46-1.44ZM9.35,10s.41-.27.64-.7c.22.44.63.71.63.71,0,0-.41.27-.64.7-.22-.44-.63-.71-.63-.71Z"/>
      </g>
    </g>
  </g>
</svg>