<?xml version="1.0" encoding="UTF-8"?>
<svg id="Livello_2" data-name="Livello 2" xmlns="http://www.w3.org/2000/svg" width="56" height="56" viewBox="0 0 20 20">
  <defs>
    <style>
      .cls-1 {
        fill: #000;
      }

      .cls-2 {
        fill: #000;
      }

      .cls-2 {
        opacity: 0;
      }
    </style>
  </defs>
  <g id="Livello_1-2" data-name="Livello 1">
    <g>
      <rect class="cls-2" width="20" height="20"/>
      <g>
        <g>
          <path class="cls-1" d="M14.1,16.12c.11-.35.24-.69.41-1.03,1.3-2.52,1.33-4.06,1.3-6.81,0-.51-.3-.95-.63-1.19-.44-.32-.92-.32-1.48-.14-.04-.62-.35-1.14-.84-1.4-.53-.28-1.14-.19-1.65.11-.18-.65-.65-1.09-1.19-1.2-.61-.12-1.18.07-1.6.58-.41-.62-1.15-.83-1.8-.61-.71.24-1.02.89-1.02,1.64v1.49c-1.61.58-2.49,2.69-1.66,4.17.73,1.31,1.56,2.53,2.51,3.69.18.22.29.42.35.7-.45.1-.54.34-.56.71l-.05.83c-.02.3.08.56.37.69,1.05.48,2.15.79,3.33.82.1.02.2.03.3.03.08.14.15.29.2.42.05-.13.12-.28.2-.42.31,0,.56-.04.56-.04,1.18-.04,2.24-.37,3.26-.83.23-.11.37-.34.36-.59l-.07-1.05c-.02-.32-.22-.49-.58-.59ZM10.38,18.52l-.95-1.22.95-1.22.95,1.22-.95,1.22ZM12.18,18.4c-.4.08-.8.12-1.17.14.48-.67,1.03-1.24,1.03-1.24,0,0-1.28-1.34-1.66-2.33-.38.99-1.66,2.33-1.66,2.33,0,0,.54.56,1.02,1.23-.33-.02-.53-.05-.53-.05-.86-.16-1.64-.39-2.41-.73l.04-1.01,2.07-.51c.16-.17.33-.39.51-.66-.67.05-1.3.2-1.99.37-.11-.33-.26-.62-.48-.89-.56-.69-2.43-3.27-2.61-3.98-.28-1.08.2-2.27,1.25-2.8l.02,2.13c0,.31.16.75.42.68.07-.02.19-.16.19-.25v-4.97c.01-.5.47-.84.88-.85.45,0,.91.34.91.84v2.35c.02.11.21.31.31.33.12.02.36-.16.36-.3l.02-2.24c0-.52.48-.91.96-.91.45,0,.92.4.92.91v2.29c.01.11.22.27.32.29.11.02.35-.16.35-.29v-1.31c0-.51.3-.9.8-.96.38-.04.96.28.97.77l.04,1.99c0,.11.22.28.32.27.39-.06.24-.64.31-1.16.06-.44.66-.55.99-.36.32.19.5.5.5.88l-.02,2.13c-.02,1.94-1,3.67-1.67,5.37-.68-.14-1.32-.27-2.03-.34l.55.67,2.08.5.06.99c-.65.29-1.27.49-1.98.65Z"/>
          <path class="cls-1" d="M10.38,16.75c-.17.34-.49.55-.49.55,0,0,.32.21.49.55.17-.34.49-.55.49-.55,0,0-.32-.21-.49-.55Z"/>
        </g>
        <path fill="#fff" d="M10.38,16.09l-.95,1.22.95,1.22.95-1.22-.95-1.22ZM10.38,17.86c-.17-.34-.49-.55-.49-.55,0,0,.32-.21.49-.55.17.34.49.55.49.55,0,0-.32.21-.49.55Z"/>
        <path fill="#fff" d="M15.17,10.56l.02-2.13c0-.37-.18-.69-.5-.88-.33-.19-.93-.08-.99.36-.06.51.09,1.1-.31,1.16-.1.02-.32-.16-.32-.27l-.04-1.99c-.01-.49-.59-.81-.97-.77-.51.05-.8.44-.8.96v1.31c0,.13-.23.31-.35.29-.1-.02-.3-.19-.3-.29v-2.29c-.02-.51-.48-.91-.93-.91-.48,0-.96.39-.96.91l-.02,2.24c0,.14-.24.33-.36.3-.11-.02-.3-.22-.3-.33v-2.35c-.02-.5-.48-.85-.93-.84-.41,0-.87.34-.87.85v4.97c-.01.08-.13.23-.2.25-.26.07-.42-.37-.42-.68l-.02-2.13c-1.05.53-1.53,1.73-1.25,2.8.18.71,2.05,3.29,2.61,3.98.22.27.37.55.48.89.69-.17,1.32-.31,1.99-.37-.18.26-.35.49-.51.66l-2.07.51-.04,1.01c.77.34,1.55.56,2.41.73,0,0,.2.03.53.05-.48-.67-1.02-1.23-1.02-1.23,0,0,1.28-1.34,1.66-2.33.38.99,1.66,2.33,1.66,2.33,0,0-.54.57-1.03,1.24.37-.02.76-.06,1.17-.14.71-.16,1.33-.36,1.98-.65l-.06-.99-2.08-.5-.55-.67c.71.07,1.36.2,2.03.34.66-1.7,1.65-3.43,1.67-5.37Z"/>
      </g>
    </g>
  </g>
</svg>