<?xml version="1.0" encoding="UTF-8"?>
<svg id="Livello_2" data-name="Livello 2" xmlns="http://www.w3.org/2000/svg" width="28" height="28" viewBox="0 0 20 20">
  <defs>
    <style>
      .cls-1, .cls-2 {
        fill: #fff;
      }

      .cls-2 {
        opacity: 0;
      }
    </style>
  </defs>
  <g id="Livello_1-2" data-name="Livello 1">
    <g>
      <rect class="cls-2" width="28" height="28"/>
      <g>
        <g>
          <path class="cls-1" d="M17.48,4.62c-.51-.3-1.25-.19-1.61.41l-1.56,2.6,1.09-4.59c.16-.68-.34-1.3-.93-1.45-.62-.16-1.28.19-1.48.84l-1.34,4.38-.09-5.01c-.01-.84-.63-1.45-1.43-1.39-.84.07-1.2.72-1.22,1.54l-.14,5.15-1.22-4.5c-.2-.75-.95-1.07-1.63-.86-.66.2-1,.87-.84,1.59l1.08,5.04c.18.83.27,1.62.1,2.47l-2.11-1.52c-.6-.43-1.4-.39-1.88.16-.49.56-.43,1.33.12,1.82,1.12.98,2.07,2.04,3,3.19.46.57.94,1.04,1.5,1.6,0,0-.02,0-.03,0-.38.11-.55.31-.58.71l-.05.83c-.02.3.08.56.37.69,1.05.48,2.15.79,3.33.82.1.02.2.03.3.03.08.14.15.29.2.42.05-.13.12-.28.2-.42.31,0,.56-.04.56-.04,1.18-.04,2.24-.37,3.26-.83.23-.11.37-.34.36-.59,0,0-.07-1.05-.07-1.05-.02-.3-.25-.47-.51-.57-.05-.02-.1-.03-.14-.05l.77-1.92.87-3.39,2.2-4.51c.3-.62.14-1.27-.44-1.62ZM10.43,18.49l-.95-1.22.95-1.22.95,1.22-.95,1.22ZM17.4,5.93l-1.92,3.82c-.75,1.49-.69,2.96-1.46,4.85-.18.44-.35.85-.51,1.29-.19-.05-.38-.09-.57-.13-.24-.05-.47-.09-.71-.12-.12-.02-.23-.03-.35-.04-.05,0-.35-.04-.35-.04,0,0,.55.67.55.67l2.08.5.06.99c-.65.29-1.27.49-1.98.65-.4.08-.8.12-1.17.14.48-.67,1.03-1.24,1.03-1.24,0,0-1.28-1.34-1.66-2.33-.38.99-1.66,2.33-1.66,2.33,0,0,.54.56,1.02,1.23-.33-.02-.53-.05-.53-.05-.86-.16-1.64-.39-2.41-.73l.04-1.01,2.07-.51c.16-.17.33-.39.51-.66,0,0-.14.01-.3.03-.11.01-.23.03-.34.05-.21.03-.43.08-.64.12-.24.05-.48.11-.72.17-.06-.12-.14-.3-.2-.37-.49-.48-.97-.95-1.4-1.48-.99-1.23-2.04-2.31-3.21-3.37-.2-.19-.13-.61.04-.8.44-.52,1.07-.11,1.48.2.58.44,1.12.84,1.73,1.23.17.11.47.12.63.05.13-.06.31-.28.34-.44.17-1.08.02-2.06-.2-3.1l-1.01-4.76c-.08-.37.22-.7.53-.76.26-.05.65.1.74.43l1.39,5.11c.07.25.37.39.57.37.16-.02.46-.22.46-.42l.08-2.83.12-3.38c.01-.37.49-.58.76-.55.31.04.6.31.61.67l.1,6.08c0,.25.34.45.53.43.18-.02.4-.21.47-.43l1.53-5.17c.1-.33.5-.48.77-.42.21.05.57.34.5.65l-1.36,5.66c-.06.24.1.55.29.6.15.04.43-.06.54-.23l2.12-3.55c.16-.26.59-.28.8-.14.2.13.33.46.19.74Z"/>
          <path class="cls-1" d="M10.43,16.72c-.17.34-.49.55-.49.55,0,0,.32.21.49.55.17-.34.49-.55.49-.55,0,0-.32-.21-.49-.55Z"/>
        </g>
        <path d="M17.21,5.19c-.22-.14-.64-.13-.8.14l-2.12,3.55c-.1.17-.39.27-.54.23-.19-.05-.35-.36-.29-.6l1.36-5.66c.07-.31-.29-.6-.5-.65-.27-.06-.67.08-.77.42l-1.53,5.17c-.07.22-.29.41-.47.43-.19.02-.52-.18-.53-.43l-.1-6.08c0-.36-.3-.63-.61-.67-.27-.03-.75.18-.76.55l-.12,3.38-.08,2.83c0,.2-.31.41-.46.42-.2.02-.5-.12-.57-.37l-1.39-5.11c-.09-.33-.48-.47-.74-.43-.31.06-.61.38-.53.76l1.01,4.76c.22,1.04.37,2.02.2,3.1-.03.16-.21.38-.34.44-.16.08-.46.06-.63-.05-.61-.39-1.15-.79-1.73-1.23-.41-.31-1.04-.72-1.48-.2-.17.19-.24.62-.04.8,1.17,1.06,2.22,2.15,3.21,3.37.43.53.91,1,1.4,1.48.07.06.15.24.2.37.24-.06.48-.12.72-.17.21-.05.43-.09.64-.12.11-.02.23-.04.34-.05.17-.02.3-.03.3-.03-.18.26-.35.49-.51.66l-2.07.51-.04,1.01c.77.34,1.55.56,2.41.73,0,0,.2.03.53.05-.48-.67-1.02-1.23-1.02-1.23,0,0,1.28-1.34,1.66-2.33.38.99,1.66,2.33,1.66,2.33,0,0-.54.57-1.03,1.24.37-.02.76-.06,1.17-.14.71-.16,1.33-.36,1.98-.65l-.06-.99-2.08-.5s-.55-.67-.55-.67c0,0,.29.03.35.04.12.01.23.03.35.04.24.03.48.07.71.12.19.04.38.08.57.13.16-.43.33-.85.51-1.29.77-1.89.71-3.36,1.46-4.85l1.92-3.82c.14-.28.01-.61-.19-.74Z"/>
        <path d="M10.43,16.06l-.95,1.22.95,1.22.95-1.22-.95-1.22ZM10.43,17.83c-.17-.34-.49-.55-.49-.55,0,0,.32-.21.49-.55.17.34.49.55.49.55,0,0-.32.21-.49.55Z"/>
      </g>
    </g>
  </g>
</svg>