<?xml version="1.0" encoding="UTF-8"?>
<svg id="Livello_2" data-name="Livello 2" xmlns="http://www.w3.org/2000/svg" viewBox="0 0 868.13 457.42">
  <defs>
    <style>
      .cls-1 {
        fill: #dba840;
      }
    </style>
  </defs>
  <g id="Livello_1-2" data-name="Livello 1">
    <path class="cls-1" d="M868.13,243.76c-7.04-39.78-40.99-80.98-77.16-103.07,16.17-1.75,34.08,2.25,48.52,6.13-35.6-29.7-86.99-44.22-132.64-38.44,12.27-11.91,22.78-18.03,37.1-25.44-30.44.14-65.72,8.5-94.61,18s-55.76,26.75-82.48,46.35c-55.76,40.91-92.9,87.79-144.4,133.88-34.44,30.82-78.9,63.2-120.37,83.53-62.44,30.61-144.55,33.64-186.28,4.72-56.62-39.23-63.96-117.26-22.7-161.68,13.9-14.96,28.37-25.8,45.27-32.69,32.31-13.18,67.29-13.8,101.02-7.53,23.45,4.36,49.1,11.92,68.21,24.85-23.43-6.11-45.05-12.05-68.17-8.25-17.63,2.9-34.97,7.74-47.77,19.71,30.73-2.52,59.33-3.88,86.65,7.59l-24.43,18.38c35.98-7.89,71.25-1.9,97.33,23.61,5.96,5.83,8.16,12.74,7.22,21.46,13.41,5.65,38.63,6.95,47.71-10.74-9.59-2.58-16.09-5.45-22.38-11.85l-31.71-32.24c27.2-.34,42.85,28.32,63.99,38.13l-.15,11.19c20.02-3.13,38.35-27.77,29.89-49.13-54.04-27.64-23.05-44.34-44.54-68.18-9.59-10.64-19.96-20.55-31.24-29.85-29.05-23.95-51.27-52.83-66-89.8-7.2,24.92.48,49.84,20.39,70.88C278.02,82.42,223.03,52.07,193.66,0c.86,45.92,29.44,80.4,62.34,109.62l-37.14-14.91c-33.22-13.33-81.4-22.69-116.17-14.85,17.86,6.66,42.36,9.91,57.51,24.29-49.24,5-99.76,34.51-129.88,73.79-35.5,46.31-39.33,122.22-14.11,175.15,20.22,42.43,62.81,74.9,98.57,86.2,77.49,24.47,150.35,12.24,217.08-24.12,29.69-16.18,59.59-36.91,85.06-59.41,25.17-22.24,48.07-44.2,72.01-67.76,7.18-7.07,15.4-15.44,22.8-22.27,34.91-32.28,64.41-59.57,107.45-79.19,26.44-12.05,62.88-18.13,89.97-13.03,30.77,5.8,58.36,28.51,72.66,56.28,14.3,27.77,15.79,57.42,4.4,86.55-8.1,20.72-21.58,41.19-41.52,53.27-28.42,17.22-51.33,18.55-78.94,18.61-34.17.07-67.52-9.13-99.06-22-15.49-6.32-30.56-13.69-45.18-21.89-3.79-2.12-44.19-29.47-44.19-29.47l-29.36,27.74c84.26,69.62,241.78,156.58,350.09,92.39-27.28,3.69-57.67,3.16-81.59-7.86,45.05-.29,81.99-18.9,108.7-54.65,33.33-44.61,38.09-106.13,14.42-159.3,11.45,5.3,20,18.53,28.55,30.6ZM428.09,227.72c1.48,2.03,1.36,6.12.57,10.67-4.48-4.64-6.73-7.72-9.35-13.66,3.29.03,7.37,1.06,8.78,2.99ZM363.18,164.99c11.78,5.49,20.36,14.66,23.97,27.56l-16.09-3.64c-7.73-1.75-13.63-6.47-17.65-13.16l-12.8-21.29,22.57,10.53Z"/>
  </g>
</svg>