<?xml version="1.0" encoding="UTF-8"?>
<svg id="Livello_2" data-name="Livello 2" xmlns="http://www.w3.org/2000/svg" viewBox="0 0 2578.57 484.27">
  <defs>
    <style>
      .cls-1 {
        fill: #dba840;
      }

      .cls-2 {
        fill: #efe8d4;
      }
    </style>
  </defs>
  <g id="Livello_1-2" data-name="Livello 1">
    <path class="cls-2" d="M1121.48,374.77c-33.77,1.66-64.95,1.05-98.29-.13,15.27-7.56,24.88-12.42,24.86-28.32l-.18-159.58c-.02-15.11-10.82-19.67-24.49-26.32,31.6-.9,61.58-1.4,92.32-.15,47.91,1.95,85.82,35.04,95.27,81.36,12.71,62.33-23.24,129.9-89.49,133.14ZM1166.36,328.4c21.05-34.59,22.46-77.9,4.68-113.73-18.65-37.57-55.84-46.65-93.93-41.01l-.1,187.15c35.32,3.74,68.7,1.54,89.36-32.41Z"/>
    <path class="cls-1" d="M2180.35,319.08c-17.78,37.14-51.59,57.04-91.54,56.56l-76.52-.9c14.67-7.27,23.97-12.94,23.98-28.4l.05-157.7c0-15.02-8.21-21.54-23.26-27.89,12.62-1.7,23.59-1.43,35.8-1.47l40.02-.13c42.6-.13,80.46,22.63,95.72,63.12,11.83,31.38,10.54,65.89-4.25,96.81ZM2150.63,213.55c-18.11-35.95-49.7-44.94-86.26-40.07l.06,186.77c14.9,1.79,28.91,2.1,42.56-1.46,52.6-13.73,69.2-94.51,43.65-145.24Z"/>
    <path class="cls-2" d="M1502.8,424.77c-2.81-13.43,1.8-29.42,15.48-34.42-12.61,18.56-7.82,40.56,10.45,52.47,22.01,14.36,48.5,10.3,63.6-12.65l1.22,14.69c15.6-10.54,20.09-32.86,10.99-49.77-5.91-10.98-18.11-16.84-30.39-18.69l-46.71-7.03c-11.84-1.78-20.85-9.85-22.24-20.02-1.71-12.47,6.16-21.57,19.26-27.19-14.36-11.91-21.14-26.38-19.98-43.82,1.06-15.93,9.39-30.88,24.39-39.38,18.07-10.24,37.17-8.84,56.04-.19,7.51-1.13,14.35-8.08,20.09-14.55l12.33,13.67c1.95,2.16-3.8,9.74-5.62,9.66-5.74-2.81-10.88-5.68-18.63-2.33,18.97,18.79,21.85,47.82,4.49,67.94-16.4,19-42.48,22.12-64.99,13-2.56-1.04-7.4,4.9-7.42,7.54-.02,3.26,4.27,8.07,8.18,8.7l53.42,8.6c22.32,3.59,40.21,19.6,45.53,39.19,6.16,22.66-.8,46.22-19.39,60.06-22.91,17.05-53.14,20.03-79.27,9.05-14.64-6.15-27.36-17.91-30.83-34.53ZM1576.64,254.42c-4.22-8.11-12.53-13.36-20.57-13.1-25.97.85-30.44,41.44-20.2,65.74,3.83,9.09,12.68,14.7,21.62,14.47,26.76-.69,31.57-43.22,19.15-67.11Z"/>
    <path class="cls-1" d="M2497.92,364.72c-14.88-20.93-25.92-41.21-39.36-62.57-3.02,2.5-11.43,8.58-11.54,12.58l-.81,29.69c-.24,8.96,4.54,11.8,13.21,18.53l-53.69.69c7.52-7.06,15.82-8.1,15.82-17.28l-.04-151.85c0-9.17-5.31-15.51-13.68-18.43l38.37-21.55.53,143.08c16.8-15.14,32.04-32.13,45.46-47.52,1.58-1.81,2.23-8.57.69-9.92l-8.85-7.82,51.24.57c-24.53,11.48-39.26,30.61-57.85,50.98,18.62,31.22,35.25,59.56,55.93,88.09,11.08,15.29,28.88,21.41,45.21,29.8-31.94,4.55-62.61-11.69-80.65-37.05Z"/>
    <path class="cls-2" d="M1962.8,274.48c-.04-8.13-3.11-16.89-8.86-21.29-6.88-5.25-18.02-4.84-25.33-1.09-5.84,2.99-14.18,11.58-14.23,20.5l-.42,69.98c-.06,9.58,4.88,14.05,13.7,20.51l-53.17-.1c8.81-6.06,14.49-9.79,14.49-18.81v-77.34c0-9.42-4.95-15.11-14.59-18.38l38.99-16.77,1.89,19.56c13.99-18.05,36.97-25.78,56.71-13.26,8.76,5.56,15.21,18.02,15.28,28.88l.54,79.81c.05,7.66,7.08,10.37,13.88,16.66l-52.48.26c10.11-6.9,14.01-12.38,13.96-23.11l-.34-66.01Z"/>
    <path class="cls-2" d="M1342.95,337c0,9.22,5.62,10.72,15.29,15.09l-38.28,15.18-1.77-21.26c-14.03,17.49-34.19,26.81-55.24,17.49-11.15-4.94-19.53-17.8-19.68-31.08l-.77-70.7c-.03-2.62-2.08-8.9-4.39-9.7l-10.8-3.73,40.68-17.76.19,97.83c.01,7.39,5.42,16.76,11.39,19.39,8.97,3.95,18.08,2.51,26.17-2.87,5.62-3.74,12.44-13.19,12.44-22.13l-.04-60.42c0-8.6-5.48-11.3-15-15.24l39.79-15.44.03,105.36Z"/>
    <path class="cls-2" d="M1858.66,333.51c-9.58,20.28-27.49,32.09-47.44,33.41s-40.53-8.56-51.58-27.05c-14.43-24.15-14.74-55.2-.86-79.71,10.89-19.22,31.29-29.43,52.63-28.28,20.12,1.08,38.77,14.01,47.97,33.76,9.79,21.01,9.5,46.23-.73,67.87ZM1829.39,256.67c-4.7-9.91-13.51-15.64-23.56-15.15-32.53,1.58-36.83,64.11-20.43,99.47,4.89,10.55,13.83,16.26,24.39,15.66,31.59-1.78,36.8-63.7,19.59-99.99Z"/>
    <path class="cls-2" d="M1667.87,338.52c12.45,13.75,33.1,14.33,47.91,5.16l17.19-10.64c-7.55,23.07-29.87,34.27-50.61,33.86-21.54-.43-40.57-13.65-48.83-34.73-9.48-24.18-8.41-51.8,4.88-74.32,15.91-26.96,52.32-35.48,76.08-15.02,14.52,12.5,18.9,31.55,18.87,50.78l-79.22,2.17c-.28,15.5,2.98,30.86,13.74,42.74ZM1706.68,284.27c-.16-19.51-4.44-40.36-21.83-42.86-21.51-3.1-32.04,26.13-30.66,44.73l52.49-1.87Z"/>
    <path class="cls-1" d="M2229.31,295.78c.34,27.17,12.35,57.13,43.73,53.63,12.84-1.43,22.88-8.89,32.96-16.83-4.95,21.14-24.44,32.7-43,34.33-21.4,1.88-40.14-8.52-50.4-27.92-13.64-25.81-13.03-57.43,2.28-82.63s47.26-32.85,70.37-16.24c16.97,12.2,21.98,33.45,20.46,53.26l-44.83,1.61-31.57.79ZM2281.09,284.63c-.08-19.12-4.59-41.82-21.84-43.38-22.62-2.04-29.51,25.87-30.36,44.76l52.2-1.38Z"/>
    <path class="cls-1" d="M2385.49,359.86c-32.57,18.87-53.5-7.32-68.43,4.57l.2-41.13c4,5.41,5.9,8.71,8.64,13.8,7.41,13.81,22.05,21.61,37.83,18.87,7.89-1.37,14.76-7.01,16.56-13.95,9.04-34.7-56.81-29.2-61.6-65.91-1.8-13.85,1.88-28.07,13.42-36.08,29.78-20.7,50.39,4.48,64.43-6.64.73,12.34,1.66,25.13-.79,38.79-8.65-19.54-18.53-32.54-39.12-30.5-8.02.8-15.42,6.73-16.73,13.91-1.36,7.43,2.02,16.79,9.48,20.68l35.29,18.4c12.07,6.29,17.83,19.39,18.44,30.79.73,13.65-4.57,26.84-17.62,34.4Z"/>
    <path class="cls-1" d="M868.13,243.76c-7.04-39.78-40.99-80.98-77.16-103.07,16.17-1.75,34.08,2.25,48.52,6.13-35.6-29.7-86.99-44.22-132.64-38.44,12.27-11.91,22.78-18.03,37.1-25.44-30.44.14-65.72,8.5-94.61,18s-55.76,26.75-82.48,46.35c-55.76,40.91-92.9,87.79-144.4,133.88-34.44,30.82-78.9,63.2-120.37,83.53-62.44,30.61-144.55,33.64-186.28,4.72-56.62-39.23-63.96-117.26-22.7-161.68,13.9-14.96,28.37-25.8,45.27-32.69,32.31-13.18,67.29-13.8,101.02-7.53,23.45,4.36,49.1,11.92,68.21,24.85-23.43-6.11-45.05-12.05-68.17-8.25-17.63,2.9-34.97,7.74-47.77,19.71,30.73-2.52,59.33-3.88,86.65,7.59l-24.43,18.38c35.98-7.89,71.25-1.9,97.33,23.61,5.96,5.83,8.16,12.74,7.22,21.46,13.41,5.65,38.63,6.95,47.71-10.74-9.59-2.58-16.09-5.45-22.38-11.85l-31.71-32.24c27.2-.34,42.85,28.32,63.99,38.13l-.15,11.19c20.02-3.13,38.35-27.77,29.89-49.13-54.04-27.64-23.05-44.34-44.54-68.18-9.59-10.64-19.96-20.55-31.24-29.85-29.05-23.95-51.27-52.83-66-89.8-7.2,24.92.48,49.84,20.39,70.88C278.02,82.42,223.03,52.07,193.66,0c.86,45.92,29.44,80.4,62.34,109.62l-37.14-14.91c-33.22-13.33-81.4-22.69-116.17-14.85,17.86,6.66,42.36,9.91,57.51,24.29-49.24,5-99.76,34.51-129.88,73.79-35.5,46.31-39.33,122.22-14.11,175.15,20.22,42.43,62.81,74.9,98.57,86.2,77.49,24.47,150.35,12.24,217.08-24.12,29.69-16.18,59.59-36.91,85.06-59.41,25.17-22.24,48.07-44.2,72.01-67.76,7.18-7.07,15.4-15.44,22.8-22.27,34.91-32.28,64.41-59.57,107.45-79.19,26.44-12.05,62.88-18.13,89.97-13.03,30.77,5.8,58.36,28.51,72.66,56.28,14.3,27.77,15.79,57.42,4.4,86.55-8.1,20.72-21.58,41.19-41.52,53.27-28.42,17.22-51.33,18.55-78.94,18.61-34.17.07-67.52-9.13-99.06-22-15.49-6.32-30.56-13.69-45.18-21.89-3.79-2.12-44.19-29.47-44.19-29.47l-29.36,27.74c84.26,69.62,241.78,156.58,350.09,92.39-27.28,3.69-57.67,3.16-81.59-7.86,45.05-.29,81.99-18.9,108.7-54.65,33.33-44.61,38.09-106.13,14.42-159.3,11.45,5.3,20,18.53,28.55,30.6ZM428.09,227.72c1.48,2.03,1.36,6.12.57,10.67-4.48-4.64-6.73-7.72-9.35-13.66,3.29.03,7.37,1.06,8.78,2.99ZM363.18,164.99c11.78,5.49,20.36,14.66,23.97,27.56l-16.09-3.64c-7.73-1.75-13.63-6.47-17.65-13.16l-12.8-21.29,22.57,10.53Z"/>
    <path class="cls-2" d="M1445.93,362.96l51.18.27c-8.74-6.86-13.78-9.51-13.82-18.61l-.37-76.52c-.07-14.57-8.24-28.37-21.46-33.36-18.6-7.03-35.01-1.01-50.56,14.06h0s0,0,0,0h0s-.66.65-.66.65l-.16-1.38h0,0s-1.98-16.59-1.98-16.59l-37.94,16.95c8.26,2.98,13.81,7.51,13.82,15.94l.08,78.13c.01,10.78-5.51,13.89-15.49,20.89l52.92-.1c-6.38-5.73-12.17-9.56-12.24-16.57l-.69-68.37c-.11-10.75,4.56-21.09,12.62-25.47,9.02-4.9,20.24-6.22,28.68.74,4.9,4.04,8.27,13.74,8.27,21.51v71.78c0,6.21-7.06,11.19-12.17,16.04Z"/>
    <path class="cls-1" d="M931.65,244.49V28.8l-5.92,5.92v209.7l-25.13,25.13,25.13,25.13v189.6l5.92-5.92v-183.75l25.05-25.05-25.05-25.05ZM928.65,286.28l-16.74-16.73,13.81-13.81,2.92-2.92,3,3,13.74,13.74-13.74,13.74-3,3Z"/>
  </g>
</svg>