<?xml version="1.0" encoding="UTF-8"?>
<svg id="Livello_2" data-name="Livello 2" xmlns="http://www.w3.org/2000/svg" width="32" height="32" viewBox="0 0 20 20">
  <defs>
    <style>
      .cls-1 {
        fill: #000;
      }

      .cls-2 {
        fill: #000;
      }

      .cls-2 {
        opacity: 0;
      }
    </style>
  </defs>
  <g id="Livello_1-2" data-name="Livello 1">
    <g>
      <rect class="cls-2" width="32" height="32"/>
      <g>
        <path class="cls-1" d="M3.49,16.51h3.88c.24,0,.43-.19.43-.43h0c0-.24-.19-.43-.43-.43h-2.43l4.03-4.03-.23-.36-.37-.24-4.03,4.03v-2.43c0-.24-.19-.43-.43-.43s-.43.19-.43.43v3.88s0,0,0,0h0Z"/>
        <path class="cls-1" d="M10,10.71c.22-.44.63-.71.63-.71,0,0-.41-.27-.64-.7-.22.44-.63.71-.63.71,0,0,.41.27.64.7Z"/>
        <path class="cls-1" d="M8.91,11.11l1.09,1.7,1.09-1.73,1.72-1.11-1.72-1.07-1.09-1.7-1.09,1.73-1.72,1.11,1.72,1.07ZM9.99,8.55l1.46,1.44-1.44,1.46-1.46-1.44,1.44-1.46Z"/>
        <path class="cls-1" d="M16.51,3.49h-3.88c-.24,0-.43.19-.43.43h0c0,.24.19.43.43.43h2.43l-4.03,4.03.23.36.37.24,4.03-4.03v2.43c0,.24.19.43.43.43s.43-.19.43-.43v-3.88s0,0,0,0h0Z"/>
        <path fill="#fff" d="M10.01,11.45l1.44-1.46-1.46-1.44-1.44,1.46,1.46,1.44ZM10,9.29c.22.43.64.7.64.7,0,0-.41.28-.63.71-.22-.43-.64-.7-.64-.7,0,0,.41-.28.63-.71Z"/>
      </g>
    </g>
  </g>
</svg>