<?xml version="1.0" encoding="UTF-8"?>
<svg id="Livello_2" data-name="Livello 2" xmlns="http://www.w3.org/2000/svg" width="56" height="56" viewBox="0 0 20 20">
  <defs>
    <style>
      .cls-1, .cls-2 {
        fill: #fff;
      }

      .cls-2 {
        opacity: 0;
      }
    </style>
  </defs>
  <g id="Livello_1-2" data-name="Livello 1">
    <g>
      <rect class="cls-2" width="20" height="20"/>
      <g>
        <path class="cls-1" d="M10,11.06c.32-.64.93-1.04.93-1.04,0,0-.61-.4-.93-1.04-.32.64-.93,1.04-.93,1.04,0,0,.61.4.93,1.04Z"/>
        <path class="cls-1" d="M8.38,11.64l1.6,2.52,1.63-2.54,2.54-1.63-2.52-1.6-1.6-2.52-1.63,2.54-2.54,1.63,2.52,1.6ZM10,7.88l2.14,2.14-2.14,2.14-2.14-2.14,2.14-2.14Z"/>
        <path d="M10,12.16l2.14-2.14-2.14-2.14-2.14,2.14,2.14,2.14ZM10,8.97c.32.64.93,1.04.93,1.04,0,0-.61.4-.93,1.04-.32-.64-.93-1.04-.93-1.04,0,0,.61-.4.93-1.04Z"/>
        <path class="cls-1" d="M17.06,2.82c-1.33,1.01-4.95,3.74-5.85,4.42l.59.92.95.61c.68-.91,3.4-4.52,4.41-5.84.06-.07-.04-.17-.11-.11Z"/>
        <path class="cls-1" d="M17.18,17.07c-1.01-1.33-3.74-4.95-4.42-5.85l-.92.59-.61.95c.91.68,4.52,3.4,5.84,4.41.07.06.17-.04.11-.11Z"/>
        <path class="cls-1" d="M2.94,17.17c1.33-1.01,4.95-3.74,5.85-4.42l-.59-.92-.95-.61c-.68.91-3.4,4.52-4.41,5.84-.06.07.04.17.11.11Z"/>
        <path class="cls-1" d="M2.82,2.95c1.01,1.33,3.74,4.95,4.42,5.85l.92-.59.61-.95c-.91-.68-4.52-3.4-5.84-4.41-.07-.06-.17.04-.11.11Z"/>
      </g>
    </g>
  </g>
</svg>