<?xml version="1.0" encoding="UTF-8"?>
<svg id="Livello_2" data-name="Livello 2" xmlns="http://www.w3.org/2000/svg" width="28" height="28" viewBox="0 0 20 20">
  <defs>
    <style>
      .cls-1 {
        fill: #3a2e18;
      }

      .cls-2 {
        fill: #3a2e18;
      }

      .cls-2 {
        opacity: 0;
      }
    </style>
  </defs>
  <g id="Livello_1-2" data-name="Livello 1">
    <g>
      <rect class="cls-2" width="20" height="20"/>
      <g>
        <g>
          <g>
            <path class="cls-1" d="M10,9.31c-.22.43-.63.71-.63.71,0,0,.41.27.63.71.22-.43.63-.71.63-.71,0,0-.41-.27-.63-.71Z"/>
            <path class="cls-1" d="M11.1,8.91l-1.09-1.71-1.11,1.73-1.73,1.11,1.71,1.09,1.09,1.71,1.11-1.73,1.73-1.11-1.71-1.09ZM10,11.47l-1.45-1.45,1.45-1.45,1.45,1.45-1.45,1.45Z"/>
          </g>
          <path class="cls-1" d="M12.76,16.64h0c-.17-.17-.44-.17-.61,0l-1.72,1.72v-5.81h0l-.43.67-.43-.67v5.81l-1.72-1.72c-.17-.17-.44-.17-.61,0-.17.17-.17.44,0,.61l2.75,2.75h0s0,0,0,0l2.75-2.75c.17-.17.17-.44,0-.61Z"/>
          <path class="cls-1" d="M7.24,3.36h0c.17.17.44.17.61,0l1.72-1.72v5.81h0l.43-.67.43.67V1.64l1.72,1.72c.17.17.44.17.61,0,.17-.17.17-.44,0-.61l-2.75-2.75h0s0,0,0,0l-2.75,2.75c-.17.17-.17.44,0,.61Z"/>
        </g>
        <path fill="#f1e7cf" d="M8.55,10.02l1.45,1.45,1.45-1.45-1.45-1.45-1.45,1.45ZM10.63,10.01s-.41.27-.63.71c-.22-.43-.63-.71-.63-.71,0,0,.41-.27.63-.71.22.43.63.71.63.71Z"/>
      </g>
    </g>
  </g>
</svg>