<?xml version="1.0" encoding="UTF-8"?>
<svg id="Livello_2" data-name="Livello 2" xmlns="http://www.w3.org/2000/svg" width="56" height="56" viewBox="0 0 20 20">
  <defs>
    <style>
      .cls-1 {
        fill: #000;
      }

      .cls-2 {
        fill: #000;
      }

      .cls-2 {
        opacity: 0;
      }
    </style>
  </defs>
  <g id="Livello_1-2" data-name="Livello 1">
    <g>
      <rect class="cls-2" width="20" height="20"/>
      <g>
        <g>
          <path class="cls-1" d="M16.51,16.51v-3.88c0-.24-.19-.43-.43-.43h0c-.24,0-.43.19-.43.43v2.43l-4.03-4.03-.36.23-.24.37,4.03,4.03h-2.43c-.24,0-.43.19-.43.43s.19.43.43.43h3.88s0,0,0,0h0Z"/>
          <g>
            <path class="cls-1" d="M10,9.29c-.22.43-.63.71-.63.71,0,0,.41.27.63.71.22-.43.63-.71.63-.71,0,0-.41-.27-.63-.71Z"/>
            <path class="cls-1" d="M11.1,8.9l-1.08-1.71-1.1,1.72-1.72,1.1,1.71,1.08,1.08,1.71,1.1-1.72,1.72-1.1-1.71-1.08ZM10,11.45l-1.45-1.45,1.45-1.45,1.45,1.45-1.45,1.45Z"/>
          </g>
          <path class="cls-1" d="M3.49,3.49v3.88c0,.24.19.43.43.43h0c.24,0,.43-.19.43-.43v-2.43l4.03,4.03.36-.23.24-.37-4.03-4.03h2.43c.24,0,.43-.19.43-.43s-.19-.43-.43-.43h-3.88s0,0,0,0h0Z"/>
        </g>
        <path fill="#fff" d="M10,11.45l1.45-1.45-1.45-1.45-1.45,1.45,1.45,1.45ZM10,9.29c.22.43.63.71.63.71,0,0-.41.27-.63.71-.22-.43-.63-.71-.63-.71,0,0,.41-.27.63-.71Z"/>
      </g>
    </g>
  </g>
</svg>