<?xml version="1.0" encoding="UTF-8"?>
<svg id="Livello_2" data-name="Livello 2" xmlns="http://www.w3.org/2000/svg" width="20" height="20" viewBox="0 0 20 20">
  <defs>
    <style>
      .cls-1 {
        fill: #000;
      }

      .cls-2 {
        fill: #000;
      }

      .cls-2 {
        opacity: 0;
      }
    </style>
  </defs>
  <g id="Livello_1-2" data-name="Livello 1">
    <g>
      <rect class="cls-2" width="20" height="20"/>
      <g>
        <g>
          <path class="cls-1" d="M14.28,16.1c-.08-.03-.15-.06-.23-.08.12-.41.24-.8.41-1.19.92-2.12.86-3.9.79-6.21-.02-.48-.38-.9-.68-1.1-.43-.28-.89-.21-1.31-.08-.1-.49-.39-.94-.78-1.15-.48-.25-.99-.2-1.45.1-.18-.44-.48-.83-.85-.98-.49-.2-.91-.12-1.4.18l-.29-4.14c-.05-.7-.82-1.1-1.41-1.03-.59.07-1.17.54-1.18,1.24v7.35c-.35-.29-.7-.52-1.13-.47-.5.06-.91.36-1.09.72-.23.45-.22.96.04,1.37l2.14,3.46c.33.54.7,1,1.09,1.49.09.11.17.35.13.47-.05.01-.1.03-.15.04-.38.11-.55.31-.58.71l-.05.83c-.02.3.08.56.37.69,1.05.48,2.15.79,3.33.82.1.02.2.03.3.03.08.14.15.29.2.42.05-.13.12-.28.2-.42.31,0,.56-.04.56-.04,1.18-.04,2.24-.37,3.26-.83.23-.11.37-.34.36-.59,0,0-.07-1.05-.07-1.05-.02-.3-.25-.47-.51-.57ZM10.49,18.48l-.95-1.22.95-1.22.95,1.22-.95,1.22ZM12.29,18.36c-.4.08-.8.12-1.17.14.48-.67,1.03-1.24,1.03-1.24,0,0-1.28-1.34-1.66-2.33-.38.99-1.66,2.33-1.66,2.33,0,0,.54.56,1.02,1.23-.33-.02-.53-.05-.53-.05-.86-.16-1.64-.39-2.41-.73l.04-1.01,2.07-.51c.16-.17.33-.39.51-.66,0,0-.14.01-.3.03-.11.01-.23.03-.34.05-.21.03-.43.08-.64.12-.17.04-.34.08-.52.12-.22-.8-.76-1.19-1.33-2.11l-2.17-3.49c-.18-.29-.06-.7.13-.89.22-.21.63-.29.89-.05.87.81.66,1.81,1.16,1.64.03-.01.1-.14.1-.18V1.74c0-.4.35-.64.64-.69.29-.05.73.2.75.57l.31,6.23c0,.17.22.34.35.32.1-.02.26-.2.26-.3v-1.07c0-.47.37-.82.81-.83,1-.01.83,1.36.83,2.04,0,.16.16.34.31.33.11-.01.28-.2.28-.31v-.48c0-.43.31-.76.73-.79.33-.02.74.25.8.68.1.73-.09,1.52.29,1.55.1,0,.3-.14.31-.24l.06-.49c.22-.25.56-.36.84-.25.25.09.54.39.54.71v2.44c0,1.29-.32,2.51-.84,3.68-.14.32-.25.65-.35,1.02-.15-.04-.3-.07-.46-.1-.24-.05-.47-.09-.71-.12-.12-.02-.23-.03-.35-.04-.05,0-.35-.04-.35-.04l.55.67,2.08.5.06.99c-.65.29-1.27.49-1.98.65Z"/>
          <path class="cls-1" d="M10.49,16.71c-.17.34-.49.55-.49.55,0,0,.32.21.49.55.17-.34.49-.55.49-.55,0,0-.32-.21-.49-.55Z"/>
        </g>
        <path fill="#fff" d="M12.28,15.63c.24.03.48.07.71.12.15.03.3.06.46.1.11-.37.21-.7.35-1.02.51-1.17.84-2.39.84-3.68v-2.44c0-.32-.29-.62-.54-.71-.28-.11-.62,0-.84.25l-.06.49c-.01.1-.21.24-.31.24-.39-.03-.19-.82-.29-1.55-.06-.42-.47-.7-.8-.68-.42.03-.73.36-.73.79v.48c0,.12-.17.3-.28.31-.15.01-.31-.17-.31-.33,0-.68.17-2.06-.83-2.04-.45,0-.81.36-.81.83v1.07c0,.11-.16.29-.26.3-.13.02-.34-.14-.35-.32l-.31-6.23c-.02-.36-.46-.62-.75-.57-.29.05-.64.29-.64.69v9.04s-.07.17-.11.18c-.5.17-.29-.83-1.16-1.64-.26-.24-.68-.16-.89.05-.19.19-.31.6-.13.89l2.17,3.49c.57.92,1.11,1.31,1.33,2.11.17-.04.34-.08.52-.12.21-.05.43-.09.64-.12.11-.02.23-.04.34-.05.17-.02.3-.03.3-.03-.18.26-.35.49-.51.66l-2.07.51-.04,1.01c.77.34,1.55.56,2.41.73,0,0,.2.03.53.05-.48-.67-1.02-1.23-1.02-1.23,0,0,1.28-1.34,1.66-2.33.38.99,1.66,2.33,1.66,2.33,0,0-.54.57-1.03,1.24.37-.02.76-.06,1.17-.14.71-.16,1.33-.36,1.98-.65l-.06-.99-2.08-.5-.55-.67s.29.03.35.04c.12.01.23.03.35.04Z"/>
        <path fill="#fff" d="M10.49,16.05l-.95,1.22.95,1.22.95-1.22-.95-1.22ZM10.49,17.82c-.17-.34-.49-.55-.49-.55,0,0,.32-.21.49-.55.17.34.49.55.49.55,0,0-.32.21-.49.55Z"/>
      </g>
    </g>
  </g>
</svg>