<?xml version="1.0" encoding="UTF-8"?>
<svg id="Livello_2" data-name="Livello 2" xmlns="http://www.w3.org/2000/svg" viewBox="0 0 20 20">
  <defs>
    <style>
      .cls-1 {
        fill: #000;
      }

      .cls-2 {
        fill: #000;
      }

      .cls-2 {
        opacity: 0;
      }
    </style>
  </defs>
  <g id="Livello_1-2" data-name="Livello 1">
    <g>
      <rect class="cls-2" width="20" height="20"/>
      <g>
        <path class="cls-1" d="M12.88,17.29c-1.48,1.14-2.33.17-2.69-.44V3.15c.35-.61,1.2-1.58,2.69-.44l1.23-1.24-.95-.9h-3.16s-3.16,0-3.16,0l-.95.9,1.23,1.24c1.48-1.14,2.33-.17,2.69.44v13.69c-.35.61-1.2,1.58-2.69.44l-1.23,1.24.95.9h3.16s3.16,0,3.16,0l.95-.9-1.23-1.24ZM8.77,1.64c-.12-.02-.25-.04-.37-.04-.39,0-.8.12-1.21.36l-.47-.47.35-.33h2.93s2.93,0,2.93,0l.35.33-.47.47c-.54-.32-1.07-.42-1.58-.32-.46.09-.88.36-1.23.78-.35-.42-.76-.68-1.23-.78ZM12.93,18.84h-2.93s-2.93,0-2.93,0l-.35-.33.47-.47c.54.32,1.07.42,1.58.32.46-.09.88-.36,1.23-.78.35.42.76.68,1.23.78.51.1,1.04,0,1.58-.32l.47.47-.35.33Z"/>
        <path class="cls-1" d="M10,1.25c-.16.31-.44.5-.44.5,0,0,.29.19.44.5.16-.31.44-.5.44-.5,0,0-.29-.19-.44-.5Z"/>
        <path class="cls-1" d="M10,18.75c.16-.31.44-.5.44-.5,0,0-.29-.19-.44-.5-.16.31-.44.5-.44.5,0,0,.29.19.44.5Z"/>
        <path fill="#fff" d="M10,17.59c-.35.42-.76.68-1.23.78-.51.1-1.04,0-1.58-.32l-.47.47.35.33h2.93s2.93,0,2.93,0l.35-.33-.47-.47c-.54.32-1.07.42-1.58.32-.46-.09-.88-.36-1.23-.78ZM10.44,18.25s-.29.19-.44.5c-.16-.31-.44-.5-.44-.5,0,0,.29-.19.44-.5.16.31.44.5.44.5Z"/>
        <path fill="#fff" d="M12.81,1.96l.47-.47-.35-.33h-2.93s-2.93,0-2.93,0l-.35.33.47.47c.41-.24.82-.36,1.21-.36.12,0,.25.01.37.04.46.09.88.36,1.23.78.35-.42.76-.68,1.23-.78.51-.1,1.04,0,1.58.32ZM10,2.25c-.16-.31-.44-.5-.44-.5,0,0,.29-.19.44-.5.16.31.44.5.44.5,0,0-.29.19-.44.5Z"/>
      </g>
    </g>
  </g>
</svg>